#!OML:ASF E:\emotionWalksFemale\Project 1\Capture day 1\Session 1\Female1.ASF
:FULLY-SPECIFIED
:DEGREES
794
root 10.0494 15.3671 13.7962 176.452 6.26109 -176.404
lowerback 5.76772 1.02952 2.88651
upperback -5.02203 1.72896 -0.929444
thorax -8.42548 0.696549 -2.83459
lowerneck -2.16784 -0.366024 -4.93223
upperneck 8.80246 -0.542998 7.36946
head 3.31635 -0.0391867 3.34581
rclavicle 7.7526e-015 -3.97569e-015
rhumerus -45.6806 20.1602 -103.267
rradius 34.2664
rwrist 14.2025
rhand -2.95046 -47.8007
rfingers 7.12502
rthumb 22.7615 -76.478
lclavicle 7.7526e-015 -3.97569e-015
lhumerus -44.4759 1.12996 83.463
lradius 37.8549
lwrist -11.6914
lhand -11.3627 -33.1756
lfingers 7.12502
lthumb 14.6711 -3.71463
rfemur 19.3234 15.3055 38.3383
rtibia -3.49861e-014
rfoot -10.5928 -22.4738
rtoes 14.0701
lfemur -29.7859 -23.6971 -9.99872
ltibia 28.1033
lfoot -22.8867 21.8551
ltoes -20.2231
795
root 10.0504 15.3655 13.738 176.608 6.50009 -176.424
lowerback 5.83602 1.03052 2.78361
upperback -5.15239 1.73639 -0.874947
thorax -8.61103 0.706112 -2.7257
lowerneck -2.37754 -0.270208 -4.96353
upperneck 9.039 -0.411543 7.38717
head 3.42985 0.0332085 3.37076
rclavicle 6.95746e-016 -6.36111e-015
rhumerus -46.0229 20.279 -103.292
rradius 33.3915
rwrist 16.3225
rhand -4.15749 -46.2078
rfingers 7.12502
rthumb 21.6027 -75.0228
lclavicle 6.95746e-016 -6.36111e-015
lhumerus -45.1086 1.28114 82.9659
lradius 37.8486
lwrist -12.3874
lhand -12.3478 -33.8069
lfingers 7.12502
lthumb 13.7219 -4.2793
rfemur 19.4408 15.3748 38.3103
rtibia 4.77083e-014
rfoot -10.8783 -22.384
rtoes 15.3128
lfemur -30.3287 -25.4136 -9.11835
ltibia 27.7239
lfoot -23.2529 23.1001
ltoes -20.5926
796
root 10.0511 15.3649 13.6762 176.798 6.89256 -176.34
lowerback 5.81532 1.06863 2.57105
upperback -5.27245 1.79164 -0.676515
thorax -8.73706 0.75303 -2.4057
lowerneck -2.51158 -0.184825 -4.89921
upperneck 9.16351 -0.287048 7.1699
head 3.48615 0.0902084 3.29026
rclavicle 2.97183e-014 1.66979e-014
rhumerus -46.2694 20.4224 -103.163
rradius 33.0155
rwrist 17.0044
rhand -4.24234 -46.1951
rfingers 7.12502
rthumb 21.5212 -75.0195
lclavicle 2.97183e-014 1.66979e-014
lhumerus -45.7005 1.33246 82.7653
lradius 38.2283
lwrist -12.2472
lhand -12.0643 -32.8981
lfingers 7.12502
lthumb 13.995 -3.38923
rfemur 19.5327 15.5932 38.4024
rtibia -3.18055e-015
rfoot -10.9095 -22.2867
rtoes 14.5377
lfemur -30.761 -26.6199 -8.23653
ltibia 27.4038
lfoot -23.9926 24.0078
ltoes -19.461
797
root 10.0523 15.3618 13.6149 176.817 7.11008 -176.257
lowerback 5.83139 1.11379 2.66614
upperback -5.2883 1.86315 -0.675058
thorax -8.75733 0.781675 -2.46769
lowerneck -2.47586 -0.181375 -4.62684
upperneck 9.11601 -0.28052 6.91756
head 3.45554 0.0906918 3.14757
rclavicle -6.75868e-015 8.74653e-015
rhumerus -46.3907 20.303 -103.111
rradius 32.9348
rwrist 16.8877
rhand -3.99462 -46.9734
rfingers 7.12502
rthumb 21.7591 -75.7703
lclavicle -6.75868e-015 8.74653e-015
lhumerus -46.0511 1.24591 82.3753
lradius 38.2812
lwrist -12.5471
lhand -11.9277 -32.3987
lfingers 7.12502
lthumb 14.1267 -2.8989
rfemur 19.7613 15.5923 38.5039
rtibia -4.77083e-015
rfoot -10.3563 -22.0526
rtoes 10.8367
lfemur -30.9741 -27.4526 -7.64327
ltibia 27.1374
lfoot -24.6016 24.7994
ltoes -18.1306
798
root 10.0546 15.3594 13.557 176.862 7.27548 -176.274
lowerback 5.57689 1.09926 2.5971
upperback -5.13811 1.8244 -0.610581
thorax -8.44953 0.774021 -2.34359
lowerneck -2.60113 -0.0914935 -4.60952
upperneck 9.00412 -0.157214 6.80579
head 3.43058 0.142932 3.10799
rclavicle -1.09332e-014 1.35174e-014
rhumerus -46.2752 20.6015 -103.001
rradius 32.8243
rwrist 16.7666
rhand -3.30164 -47.7748
rfingers 7.12502
rthumb 22.4244 -76.4931
lclavicle -1.09332e-014 1.35174e-014
lhumerus -46.0838 1.64011 81.9221
lradius 38.0482
lwrist -13.2442
lhand -12.254 -32.6697
lfingers 7.12502
lthumb 13.8122 -3.14826
rfemur 19.9437 15.5595 38.4861
rtibia -1.59028e-015
rfoot -9.43913 -21.857
rtoes 9.71352
lfemur -31.2396 -28.1866 -7.1816
ltibia 26.9048
lfoot -24.8912 25.8958
ltoes -17.7148
799
root 10.0536 15.3618 13.4978 177 7.72316 -176.31
lowerback 5.74518 1.16673 2.5087
upperback -5.32066 1.93181 -0.522108
thorax -8.74675 0.831849 -2.22422
lowerneck -2.69209 -0.00166489 -4.86247
upperneck 9.19633 -0.0299993 6.92775
head 3.51058 0.206964 3.20956
rclavicle -2.5842e-015 2.22639e-014
rhumerus -46.4894 20.5284 -102.828
rradius 32.6941
rwrist 16.7661
rhand -2.30859 -48.4424
rfingers 7.12502
rthumb 23.3774 -77.0427
lclavicle -2.5842e-015 2.22639e-014
lhumerus -46.6366 1.86248 81.5798
lradius 37.9269
lwrist -13.6119
lhand -12.3817 -33.1835
lfingers 7.12502
lthumb 13.6892 -3.65369
rfemur 20.0617 15.8322 38.4415
rtibia 3.97569e-014
rfoot -8.67358 -21.6209
rtoes 6.6999
lfemur -31.492 -28.8639 -6.66214
ltibia 26.706
lfoot -25.8175 26.9464
ltoes -15.0727
800
root 10.0481 15.3652 13.4366 177.068 8.30405 -176.291
lowerback 5.84388 1.3084 2.60409
upperback -5.41898 2.14281 -0.507348
thorax -8.89865 0.927435 -2.29546
lowerneck -2.86109 0.0487108 -4.90456
upperneck 9.43838 0.0439551 6.92177
head 3.62326 0.248746 3.22682
rclavicle -4.47266e-015 1.51076e-014
rhumerus -46.5869 20.1809 -102.636
rradius 32.5096
rwrist 16.6611
rhand -2.57569 -48.6409
rfingers 7.12502
rthumb 23.1211 -77.2735
lclavicle -4.47266e-015 1.51076e-014
lhumerus -47.182 1.75512 81.2858
lradius 37.963
lwrist -13.6912
lhand -12.3123 -33.5703
lfingers 7.12502
lthumb 13.7561 -4.045
rfemur 20.255 16.2103 38.4672
rtibia -1.59028e-015
rfoot -9.66728 -21.6251
rtoes 10.9071
lfemur -31.5345 -29.3879 -6.21417
ltibia 26.5476
lfoot -27.2589 27.7128
ltoes -10.7599
801
root 10.0448 15.3595 13.3706 177.084 8.19044 -176.11
lowerback 5.52547 1.23053 2.86672
upperback -5.2345 2.04367 -0.477781
thorax -8.50872 0.870203 -2.3825
lowerneck -3.00454 0.127621 -4.85519
upperneck 9.31171 0.148105 6.87368
head 3.59826 0.295892 3.20295
rclavicle -6.55989e-015 -1.19271e-014
rhumerus -46.2956 19.8716 -102.272
rradius 32.3097
rwrist 16.469
rhand -2.95148 -48.7425
rfingers 7.12502
rthumb 22.7605 -77.4199
lclavicle -6.55989e-015 -1.19271e-014
lhumerus -47.3097 1.59383 81.0361
lradius 37.8195
lwrist -13.8139
lhand -12.4206 -33.7045
lfingers 7.12502
lthumb 13.6517 -4.17216
rfemur 20.4598 15.8796 38.639
rtibia 2.38542e-014
rfoot -9.90858 -21.6033
rtoes 13.0292
lfemur -31.6479 -29.5972 -5.93031
ltibia 26.4467
lfoot -27.5468 28.1333
ltoes -8.88063
802
root 10.0435 15.355 13.3084 177.125 8.31011 -175.913
lowerback 5.65813 1.2346 3.02605
upperback -5.28207 2.07933 -0.381006
thorax -8.6357 0.878696 -2.37971
lowerneck -3.1115 0.19642 -4.80171
upperneck 9.36414 0.243067 6.804
head 3.62955 0.343078 3.17461
rclavicle -1.59028e-014 1.59028e-015
rhumerus -46.3457 19.6182 -101.91
rradius 32.1115
rwrist 16.5059
rhand -2.61157 -48.7809
rfingers 7.12502
rthumb 23.0867 -77.4179
lclavicle -1.59028e-014 1.59028e-015
lhumerus -47.6095 1.48021 80.8006
lradius 37.4613
lwrist -14.1971
lhand -12.4484 -33.569
lfingers 7.12502
lthumb 13.6249 -4.03486
rfemur 20.6739 15.7752 38.869
rtibia -4.13472e-014
rfoot -9.32983 -21.5784
rtoes 11.9297
lfemur -31.7016 -29.5685 -5.65334
ltibia 26.4086
lfoot -27.8044 28.5223
ltoes -7.23298
